<?xml version="1.0" standalone="no"?>
<!DOCTYPE svg PUBLIC "-//W3C//DTD SVG 20010904//EN"
 "http://www.w3.org/TR/2001/REC-SVG-20010904/DTD/svg10.dtd">
<svg version="1.0" xmlns="http://www.w3.org/2000/svg"
 width="1905.000000pt" height="1905.000000pt" viewBox="0 0 1905.000000 1905.000000"
 preserveAspectRatio="xMidYMid meet">
<metadata>
Created by potrace 1.15, written by Peter Selinger 2001-2017
</metadata>
<g transform="translate(0.000000,1905.000000) scale(0.100000,-0.100000)"
fill="#000000" stroke="none">
<path d="M9500 17406 c0 -1304 3 -1636 13 -1636 14 0 6117 -6100 6117 -6115 0
-6 -1267 -1277 -2815 -2825 l-2815 -2815 0 -1800 0 -1800 4501 4500 c2475
2475 4506 4511 4513 4525 23 42 28 86 16 132 -10 39 -413 444 -4703 4736
-2581 2581 -4704 4700 -4718 4707 -15 8 -45 17 -68 21 l-41 7 0 -1637z"/>
<path d="M4553 14137 l-4553 -4552 0 -60 0 -60 4733 -4732 4732 -4733 43 0 42
0 0 1809 0 1809 -32 7 c-27 6 -244 218 -1116 1088 l-1082 1082 1125 1125 1125
1125 0 606 0 605 -237 385 -238 384 -3 450 -3 449 -1724 -1724 -1725 -1725
-1041 1040 c-573 572 -1054 1058 -1070 1079 -31 42 -38 90 -18 129 6 12 1268
1280 2805 2817 l2794 2795 -2 1678 -3 1677 -4552 -4553z"/>
<path d="M9753 11868 l-243 -242 0 -759 c0 -618 3 -764 14 -790 7 -18 111
-171 231 -342 120 -170 224 -324 232 -342 10 -25 13 -104 13 -340 l0 -308 840
840 c548 548 840 847 840 860 0 27 -1638 1665 -1665 1665 -12 0 -111 -92 -262
-242z"/>
</g>
</svg>
